<svg xmlns:inkscape="http://www.inkscape.org/namespaces/inkscape" xmlns:sodipodi="http://sodipodi.sourceforge.net/DTD/sodipodi-0.dtd" xmlns="http://www.w3.org/2000/svg" xmlns:svg="http://www.w3.org/2000/svg" version="1.1" id="CREST" x="0px" y="0px" viewBox="0 0 486.7 661.99998" xml:space="preserve" sodipodi:docname="logo (2).svg" width="271.2286022579098" height="368.6926790446331" inkscape:version="1.4.3 (0d15f75042, 2025-12-25)"><defs id="defs40"/><sodipodi:namedview id="namedview40" pagecolor="#ffffff" bordercolor="#000000" borderopacity="0.25" inkscape:showpageshadow="2" inkscape:pageopacity="0.0" inkscape:pagecheckerboard="0" inkscape:deskcolor="#d1d1d1" inkscape:zoom="0.42962963" inkscape:cx="243.23276" inkscape:cy="330.51724" inkscape:window-width="1280" inkscape:window-height="730" inkscape:window-x="0" inkscape:window-y="0" inkscape:window-maximized="1" inkscape:current-layer="CREST"/>
<style type="text/css" id="style1">
	.st0{fill:none;}
	.st1{fill:#94BEE5;}
	.st2{fill:#F0F0F0;}
	.st3{fill:#480024;}
	.st4{fill:#FFFFFF;}
	.st5{fill:#7DA3C9;}
	.st6{fill:#7496BD;}
	.st7{fill:#FFE505;}
</style>

<path class="st1" d="m 34,60.8 v 426.8 c 0,59.4 77,80.8 138.9,98 l 0.3,0.1 c 13.2,3.7 25.7,7.2 36.9,10.8 0.1,0 12.6,4.2 23.6,11.5 3.5,2.3 7,5.1 9.8,7.6 3.4,-3 6.7,-5.5 9.8,-7.6 10.6,-6.9 22.3,-11 23.6,-11.4 11.2,-3.7 23.7,-7.2 36.9,-10.8 l 0.3,-0.1 C 376,568.5 453,547.1 453,487.7 V 60.8 C 436.3,55.8 357.4,34 243.5,34 129.5,34 50.7,55.8 34,60.8 Z" id="path5"/>
<g id="g6" transform="translate(-60.7,-61.7)">
	<path class="st2" d="m 304.2,703.8 -9.9,-9.3 c -3.8,-3.5 -7.4,-6.5 -10.5,-8.5 -8.7,-5.7 -19,-9.2 -19.1,-9.2 -10.7,-3.5 -23,-7 -36.1,-10.6 h -0.2 C 196,657.2 159.3,647 130.1,630.6 113.2,621.1 100.6,610.6 91.5,598.4 80.7,584 75.3,567.6 75.3,549.5 v -441 l 9.9,-3.3 c 3.5,-1.2 87.6,-28.9 219,-28.9 131.4,0 215.5,27.7 219,28.9 l 9.9,3.3 v 440.8 c 0,18.1 -5.5,34.5 -16.2,48.9 -9.1,12.1 -21.7,22.7 -38.6,32.2 -29.3,16.4 -66,26.6 -98.4,35.6 h -0.2 c -13,3.6 -25.4,7 -36.1,10.6 -0.1,0 -10.4,3.6 -19,9.2 -3.1,2.1 -6.7,5 -10.5,8.5 z M 85,115.4 v 433.9 c 0,15.9 4.8,30.4 14.3,43.1 8.3,11 19.9,20.7 35.6,29.5 28.2,15.9 64.3,25.9 96.1,34.7 h 0.2 c 13.2,3.7 25.6,7.1 36.5,10.7 0.5,0.2 11.5,3.9 21.3,10.3 3.6,2.4 7.7,5.7 11.8,9.6 v 0 l 3.3,3.1 3.3,-3.1 c 4.2,-3.9 8.2,-7.2 11.8,-9.6 9.9,-6.5 21.2,-10.3 21.3,-10.3 11,-3.6 23.4,-7.1 36.6,-10.7 h 0.2 c 31.9,-8.8 67.9,-18.9 96.1,-34.7 15.7,-8.8 27.3,-18.5 35.6,-29.5 9.5,-12.7 14.3,-27.2 14.3,-43.1 V 115.4 L 520,114.3 C 516.6,113.2 434,86 304.2,86 174.4,86 91.8,113.2 88.3,114.3 Z" id="path6"/>
</g>
<g id="g7" transform="translate(-60.7,-61.7)">
	<path class="st3" d="m 304.2,690.5 -3.3,-3.1 c -2.9,-2.7 -7.3,-6.6 -11.8,-9.6 -9.9,-6.5 -21.2,-10.3 -21.3,-10.3 -10.9,-3.6 -23.3,-7 -36.4,-10.7 l -0.3,-0.1 C 199.3,647.9 163.2,637.8 135,622 101.3,603 85,579.3 85,549.3 V 115.4 l 3.3,-1.1 C 89.1,114 174.4,86 304.2,86 c 67.8,0 122.8,7.7 157,14.1 37.2,7 58,13.9 58.9,14.2 l 3.3,1.1 v 433.9 c 0,30 -16.3,53.7 -49.9,72.6 -28.2,15.9 -64.3,25.9 -96.1,34.7 l -0.3,0.1 c -13.1,3.6 -25.5,7.1 -36.5,10.7 -0.4,0.1 -11.6,4 -21.3,10.3 -3.6,2.3 -7.6,5.7 -11.8,9.6 z M 94.7,122.5 v 426.8 c 0,59.4 77,80.8 138.9,98 l 0.3,0.1 c 13.2,3.7 25.7,7.2 36.9,10.8 0.1,0 12.6,4.2 23.6,11.5 3.5,2.3 7,5.1 9.8,7.6 3.4,-3 6.7,-5.5 9.8,-7.6 10.6,-6.9 22.3,-11 23.6,-11.4 11.2,-3.7 23.7,-7.2 36.9,-10.8 l 0.3,-0.1 c 61.9,-17.2 138.9,-38.6 138.9,-98 V 122.5 c -16.7,-5 -95.6,-26.8 -209.5,-26.8 -114,0 -192.8,21.8 -209.5,26.8 z" id="path7"/>
</g>
<polygon class="st4" points="184.4,141 170.1,138.9 163.7,125.7 157.2,138.9 142.9,141 153.3,151.3 150.8,165.8 163.7,158.9 176.5,165.8 174,151.3 " id="polygon7" transform="translate(-60.7,-61.7)"/>
<g id="g24" transform="translate(-60.7,-61.7)">
	<g id="g8">
		<path class="st5" d="m 233.5,273.4 c 5.8,0 9.4,-3 12.5,-7.2 -1.1,-0.2 -2.1,-0.3 -3.1,-0.5 -4.5,5.9 -10.7,7.7 -9.4,7.7 z" id="path8"/>
	</g>
	<g id="g9">
		<path class="st5" d="m 257.8,331.7 c -19.2,0.8 -42.6,9.3 -52.2,18.8 -8.3,8.3 -2,18.6 -10,26.5 -1.3,2.6 -1.2,6.2 -1.2,8.6 3.9,-1.4 5.6,-4.7 5.6,-4.7 0,0 0.4,5.6 6,6.2 1.2,5 4.4,9.2 5.4,9.2 0.7,0 -0.7,-6.8 1.4,-11.1 1.4,-1.4 2.3,-2.8 3,-4.4 -0.9,-2.5 -0.7,-4.9 -0.4,-5.8 0.1,-0.2 0.3,-0.3 0.4,-0.1 0.3,0.3 0.8,0.6 1.4,1 0.9,-5.8 0.3,-11.9 5.6,-17.2 8,-8 25.9,-15.3 42.8,-17.9 -2.7,-3.2 -5.4,-6.4 -7.8,-9.1 z" id="path9"/>
	</g>
	<g id="g10">
		<path class="st5" d="m 272.9,216.9 c -2.6,0.8 -12.8,8.5 -16.7,12.4 -1.5,1.5 1.3,5.5 0.7,6.1 0,0 -0.1,0.1 -0.3,0.1 -1,0 -1.9,-0.3 -2.8,-0.8 0.9,4 4.9,8.3 8.1,10.9 4.2,-3.4 8.4,-5.9 11.8,-8.6 0.9,-0.9 2,-1.8 3.3,-2.9 2.4,-2.6 4,-5.5 4,-9.7 0.1,-5.3 -2.7,-9.2 -8.1,-7.5 z" id="path10"/>
	</g>
	<g id="g11">
		<path class="st5" d="m 187.6,394.5 c 1,0 -0.2,-5.2 2,-8.5 0.5,0.1 1,0.2 1.5,0.2 0.3,0 0.7,0 1,-0.1 -1.2,-1.7 -2.6,-4.3 -3.2,-7.1 -3.6,-0.4 -5,-2.8 -5.6,-4.5 -0.3,1.8 0,4.1 0.9,6.1 -2.9,5.8 2.1,13.9 3.4,13.9 z" id="path11"/>
	</g>
	<g id="g12">
		<path class="st5" d="m 248.4,214.8 c 6.1,-2.6 8.2,-10.1 8.2,-14.6 0,-2.2 -1.6,-3.4 -4.8,-3.4 -2.1,0 -7.5,0.2 -11.6,1.2 -1.1,1.5 -1.5,3.3 -1.5,5.5 -0.1,3.9 5.6,8.7 9.7,11.3 z" id="path12"/>
	</g>
	<g id="g13">
		<path class="st5" d="m 299.2,418.7 c 0,-16.9 10.3,-23.1 10.3,-33.8 0,-2.4 -1.6,-6.8 -2.5,-7.9 0,0 0,0 0,0 -0.1,0 0,0.1 0,0.1 3.1,10.1 -4.9,13.4 -10.7,29.6 -7.2,2 -14.9,8.2 -14.9,19.2 0,11.6 9,20 17.2,20 1.3,0 2.3,-0.4 2.9,-0.6 0.1,0 0.1,0 0.2,0 -2,-3.2 -3.2,-7 -3.2,-11.3 0,-3 0.6,-5.7 1.6,-8 -0.6,-2 -0.9,-4.4 -0.9,-7.3 z" id="path13"/>
	</g>
	<g id="g14">
		<path class="st5" d="m 219.9,291.8 c 2.9,4.3 5.2,8.9 6.2,13.5 2.8,-2.1 4.5,-3.5 4.5,-3.5 -4.2,-4.2 -7.1,-6.9 -10.7,-10 z" id="path14"/>
	</g>
	<g id="g15">
		<path class="st5" d="m 327.9,449.1 c 1.9,2.3 3.3,5 3.3,8.9 0,5.1 -1.9,8 -2.7,9 -0.1,0.2 0,0.4 0.2,0.4 1.8,0.3 8.8,0.5 15.5,-10.6 8.9,4.6 6.5,12.3 5.8,14.1 -0.1,0.2 0.1,0.4 0.3,0.4 11.6,-0.4 15.3,-16.1 15.3,-16.1 0.3,0 0.7,-0.1 1,-0.1 0.1,-0.4 0.1,-0.9 0.1,-1.3 0,-4.3 -8.1,-7.8 -18.3,-6.7 0,0 -3.7,15.7 -15.3,16.1 -0.2,0 -0.3,-0.2 -0.3,-0.4 0.7,-1.8 3,-9.1 -4.9,-13.7 z" id="path15"/>
	</g>
	<g id="g16">
		<path class="st5" d="m 311.4,466.6 c 0.1,-0.2 0,-0.4 -0.2,-0.4 -8.6,0.1 -12.2,-4 -12.9,-6.5 8.9,3.6 14.2,1.9 17.2,-0.7 -1.9,0.5 -3.3,0.4 -4,0.3 -0.2,0 -0.3,-0.3 -0.2,-0.4 0.5,-0.7 1.6,-2.3 2.3,-5 -4.5,-0.7 -8.9,-3.7 -11.8,-8.2 0,0 0,0 0,0.1 -0.9,2.5 -5.4,12.2 -20.8,5.9 0.7,2.5 4.3,6.6 12.9,6.5 0.2,0 0.3,0.2 0.2,0.4 -2.4,4.9 -6.6,6 -10,6 -5.2,0 -10.3,-3 -16,-3 -11.2,0 -16.5,14 -34.8,14 2.5,-2.7 2.4,-9.1 -4.4,-9.1 -12.2,0 -22.5,14.8 -38.6,15.1 -0.1,0 -0.3,0 -0.4,0 -0.2,0 -0.3,0 -0.5,0 -0.1,0.9 -0.1,1.9 -0.1,2.9 0,4.7 1.5,11 2.4,11 0.9,0 1.5,-7.3 4.6,-10.1 1.3,1.3 2.9,2.3 4.7,3.1 1.7,0.8 3.7,1.2 6,1.2 0.1,0 0.3,0 0.4,0 16.2,-0.3 26.5,-15.1 38.6,-15.1 6.8,0 6.9,6.4 4.4,9.1 18.4,0 23.6,-14 34.8,-14 5.7,0 10.8,3 16,3 3.6,-0.1 7.8,-1.2 10.2,-6.1 z" id="path16"/>
	</g>
	<g id="g17">
		<path class="st5" d="m 439.7,433.4 c -5,4 -14.4,3.1 -14.4,3.1 4.4,-3.5 7.6,-13.5 3.1,-22.9 -0.1,-0.2 -0.4,-0.2 -0.5,0 -3.9,9.2 -11.3,12.9 -18.6,13.7 -0.4,0.4 -0.8,0.8 -1.2,1.1 0,0 9.3,0.9 14.4,-3.1 0.2,-0.1 0.4,0 0.4,0.2 -0.5,13.9 -19.2,23.2 -19.2,23.2 2.3,2.3 7.5,1.9 9.5,0.6 0.2,-0.1 0.4,0 0.4,0.3 -0.4,2.8 -3.7,5.3 -6.5,8.1 -23.1,23.1 -17.9,37.9 -30.1,37.9 0.1,-0.5 1.1,-4.8 -3.7,-4.8 -7.5,0 -13.6,14.2 -22.5,23.1 -6.1,6.1 -13.6,10 -22.1,10 -2.9,0 -5.9,-1.3 -8.2,-2.8 -0.4,0.3 -0.7,0.6 -1.1,0.9 2.3,3.9 6.8,4.9 9.7,4.9 -0.4,3.7 -0.3,10 0.6,10.9 0.7,0.7 3.6,-5.3 8,-8.5 2.3,1.4 5.2,2.8 8.2,2.8 8.4,0 16,-4 22.1,-10 8.9,-8.9 15,-23.1 22.5,-23.1 4.7,0 3.8,4.3 3.7,4.8 12.1,0 7,-14.8 30.1,-37.9 2.8,-2.8 6.1,-5.3 6.5,-8.1 0,-0.2 -0.2,-0.4 -0.4,-0.3 -2,1.3 -7.2,1.7 -9.5,-0.6 0,0 18.7,-9.3 19.2,-23.2 0,-0.3 -0.2,-0.4 -0.4,-0.3 z" id="path17"/>
	</g>
	<g id="g18">
		<path class="st5" d="m 158.2,273.7 c 0,0 0,0 0,0 0.7,3.3 3.4,9.6 9.3,9.6 2.7,0 4.6,-0.7 5.8,-1.7 0.6,0.1 1.3,0.2 2.1,0.2 7.8,0 9.6,-9.4 19.3,-9.4 0,0 0.1,0 0.1,0 -6,-5 -12.7,-8.1 -17.3,-8.1 -9.7,0 -11.5,9.4 -19.3,9.4 z" id="path18"/>
	</g>
	<g id="g19">
		<path class="st5" d="m 169.5,208.4 c 0,18.6 9.4,26.8 10.1,27.5 0.3,0.3 0.5,0.7 0.6,1.2 5.2,0.7 9.7,2 13.7,3.6 -3,-4 -7.2,-11.8 -7.2,-24.2 0,-3.7 -2.5,-6.6 -6.4,-6.6 v 0 c -1.2,-2.6 -4.4,-7.9 -11.1,-7.9 -1.4,0 -2.5,0.1 -3.4,0.4 2.3,1 3.7,3.3 3.7,6 z" id="path19"/>
	</g>
	<g id="g20">
		<path class="st5" d="m 484.1,240.7 c -2.4,0 -3.7,0.4 -3.7,0.4 0,0 16.1,-15.8 16.1,-40.4 0,-11.2 -2.7,-15.5 -3.1,-15.5 -0.8,0 -0.9,6.7 -6,11.8 -2.5,2.5 -5.9,3.5 -8.8,4.8 -3.2,19.3 -15.3,31.2 -15.3,31.2 0,0 1.3,-0.4 3.7,-0.4 5.3,0 9.1,3.7 8.3,4.5 -0.7,0.7 -7.9,-0.3 -14.7,6.4 0,0 -8.8,10.7 -23.4,10.7 -14.6,0 -27.4,-7.1 -27.4,-7.1 -5.7,5.1 -9.9,13 -9.9,20.5 0,7.4 2.2,14.3 6.8,21.5 4.4,6.8 10.4,13.1 16.3,19.2 11.8,12.3 24.1,25.1 24.1,43.1 0,8.7 -2.9,16.9 -8.2,23 -2.9,3.4 -6.5,6.1 -10.6,8 -4.3,2 -9.2,3 -14.4,3 -7.8,0 -14.4,-1.6 -20.3,-3.8 1.4,0.7 2.9,1.4 4.4,2.2 9,4.6 19.2,9.8 33.2,9.8 5.2,0 10,-1 14.4,-3 4.1,-1.9 7.6,-4.6 10.6,-8 5.3,-6.2 8.2,-14.4 8.2,-23 0,-18 -12.2,-30.7 -24.1,-43.1 -5.9,-6.1 -11.9,-12.4 -16.3,-19.2 -4.7,-7.3 -6.8,-14.1 -6.8,-21.5 0,-7.5 4.2,-15.4 9.9,-20.5 0,0 12.7,7.1 27.4,7.1 14.6,0 23.4,-10.7 23.4,-10.7 6.7,-6.7 13.9,-5.7 14.7,-6.4 0.6,-0.9 -3.2,-4.6 -8.5,-4.6 z" id="path20"/>
	</g>
	<g id="g21">
		<path class="st5" d="m 340.9,130.2 c 0.1,-0.1 0.1,-0.3 -0.1,-0.4 -1.9,-0.7 -6,-2.3 -15.4,-2.3 -2.4,0 -4.7,0.3 -6.9,0.9 9,-1.4 16.3,-0.5 22.4,1.8 z" id="path21"/>
	</g>
	<g id="g22">
		<path class="st5" d="m 390,419.3 c -2.9,-3.7 -4.7,-8.5 -4.7,-13.8 0,-10.8 3.5,-15.6 4.9,-25.2 -3.4,-1.4 -6.5,-3 -9.5,-4.5 -2.7,-1.4 -5.2,-2.7 -7.7,-3.7 -1.4,9.7 -4.9,14.5 -4.9,25.4 0,12.7 9.8,21.9 21.3,21.9 0.3,-0.1 0.5,-0.1 0.6,-0.1 z" id="path22"/>
	</g>
	<g id="g23">
		<path class="st5" d="m 383.1,163 c 0.2,0 0.3,0.2 0.2,0.4 -1.5,2.7 -5.6,5.6 -9,5.6 -1.6,0 -2.6,-0.2 -2.6,-0.2 9.8,8.7 8.4,32.4 18.8,33.2 0.2,0 0.3,0.3 0.2,0.5 -1.5,1.3 -3.9,2.3 -8,2.3 -3.7,0 -6.8,-1.9 -6.8,-1.9 0,0 2.2,3.4 2.2,8.1 0,4.7 -1.9,5.9 -1.9,12.6 0,5.8 5.6,9.6 7,10.5 0.2,0.1 0.2,0.3 0,0.4 -0.8,0.6 -2.2,1 -4.7,1 -2.9,0 -8.7,-2 -12,-5.3 0.8,0.8 4.8,5.1 4.8,12.4 0,7.3 -2.7,12.9 -2.7,20.2 0,6.4 4.3,9.9 5.4,10.7 0.1,0.1 0.1,0.3 0,0.4 -0.6,0.5 -1.8,1.2 -3.8,1.2 -2.2,0 -8.9,-1.4 -12.8,-5.2 2,8.5 -3.4,15.2 -3.4,27.3 0,22.2 17.1,36.5 19.5,60.3 4.6,1.8 8.9,4.1 13.2,6.3 1.3,0.7 2.6,1.3 3.9,1.9 -2.7,-23.3 -19.4,-38.5 -19.4,-60.4 0,-12.1 5.4,-18.8 3.4,-27.3 3.9,3.9 10.6,5.2 12.8,5.2 0.6,0 1.1,-0.1 1.6,-0.2 -0.6,-1.8 -1.1,-3.6 -1.5,-5.4 -1,-1.7 -1.8,-3.9 -1.8,-6.7 0,-3.6 0.7,-6.8 1.3,-9.9 0.2,-0.9 0.4,-1.9 0.6,-2.8 0.5,-2.4 0.8,-4.8 0.8,-7.5 0,-7.3 -4,-11.6 -4.8,-12.4 3,3 8.2,4.9 11.2,5.2 0.9,-1.1 1.9,-2.2 2.9,-3.3 -2.1,-1.8 -4.5,-4.8 -4.5,-8.6 0,-6.7 1.9,-7.9 1.9,-12.6 0,-4.7 -2.2,-8.1 -2.2,-8.1 0,0 3.1,1.9 6.8,1.9 4.1,0 6.5,-1 8,-2.3 0.2,-0.2 0.1,-0.4 -0.2,-0.5 -10.4,-0.8 -9,-24.5 -18.8,-33.2 0,0 1,0.2 2.6,0.2 3.4,0 7.5,-2.9 9,-5.6 0.1,-0.2 0,-0.4 -0.2,-0.4 -15.6,-0.8 -22.4,-29.5 -48.3,-34.6 13.2,10.4 19.9,26.1 31.3,26.6 z" id="path23"/>
	</g>
</g>
<g id="g33" transform="translate(-60.7,-61.7)">
	<path class="st3" d="m 150.7,594 c -4.1,-2.3 -7.4,-4.3 -7.4,-4.3 1,0 2.5,-0.1 3.5,-1.7 0.8,-1.4 1.4,-4 2.2,-7.1 0.2,-0.7 0.4,-1.5 0.6,-2.2 -3.6,-2.2 -7.1,-4.5 -10.7,-6.9 -0.6,0.5 -1.2,0.9 -1.8,1.4 -2.5,2 -4.7,3.6 -5.6,4.9 -1.1,1.6 -0.6,3 -0.1,3.9 0,0 -2.4,-1.8 -6,-4.3 -3.7,-2.6 -5.8,-4.1 -5.8,-4.1 3.1,0 5.9,-1.9 12.2,-6.3 6.2,-4.4 12.3,-9 18.3,-13.6 0.5,-0.4 1,-0.8 1.4,-1.4 0.4,-0.6 0.3,-1 0.3,-1.1 4.7,3.2 9.4,6.2 14.2,9.1 0,0 -0.5,0.1 -0.9,0.8 -0.3,0.6 -0.6,1.2 -0.7,1.8 -1.9,7.3 -3.6,14.6 -5.2,22 -1.6,7.5 -2.1,10.8 -0.9,13.5 -0.2,-0.1 -3.1,-1.8 -7.6,-4.4 z m 4,-33.2 c 0.7,-2.2 1.1,-3.4 1.3,-3.7 -0.2,0.2 -0.9,1 -2.8,2.7 -3.3,2.9 -6.6,5.7 -10,8.6 2.6,1.8 5.3,3.5 7.9,5.1 1.1,-4.3 2.3,-8.5 3.6,-12.7 z" id="path24"/>
	<path class="st3" d="m 170.8,605.1 c -7.4,-3.6 -10.2,-7 -10.2,-6.9 0,0 0.7,-1 2,-3.5 1.5,-2.8 2.3,-4.5 2.3,-4.5 0.7,3.3 2.2,7 7.7,9.7 3.8,1.8 7.2,2.5 8.6,-0.5 1.1,-2.4 -0.3,-4 -2.4,-6.5 -1.2,-1.4 -2.3,-2.9 -3.4,-4.3 -3.2,-4.1 -5.2,-8.3 -2.7,-13 3.3,-6.2 9.4,-6.8 17.8,-2.8 6,2.8 8.7,5.5 8.7,5.5 0,0 -0.6,1.1 -1.7,3.8 -1.2,2.8 -1.7,4.4 -1.7,4.4 -1,-3.7 -2.8,-6.7 -6.8,-8.6 -3.4,-1.6 -5.9,-1.8 -7.1,0.6 -1.1,2.2 0.3,3.8 2.6,6.6 1,1.2 2,2.4 3,3.6 3.7,4.3 5.8,8.1 3.7,13.4 -3.6,7.9 -11.6,7.3 -20.4,3 z" id="path25"/>
	<path class="st3" d="m 230.8,596.3 c 0,-0.1 -0.2,-0.7 -1.5,-1.9 -1.1,-1.1 -3,-2.2 -5.6,-3 -1,-0.3 -1.9,-0.6 -2.9,-0.9 -1.4,4.3 -2.8,8.6 -4.1,13 -4.6,14.4 -4.4,14.7 -3.8,17.1 0.1,0.3 0.2,0.7 0.3,1 0,0 -2.1,-0.7 -7.2,-2.5 -5.1,-1.7 -7.3,-2.5 -7.3,-2.5 0.3,-0.2 0.6,-0.4 0.8,-0.6 1.9,-1.4 2.3,-1.7 7.5,-16.3 1.5,-4.1 2.9,-8.2 4.4,-12.3 -1,-0.3 -1.9,-0.7 -2.9,-1 -2.5,-0.9 -4.7,-1.2 -6.3,-1 -1.7,0.2 -2.3,0.5 -2.4,0.6 0,0 0.7,-1.4 1.7,-3.9 1,-2.4 1.3,-3.4 1.3,-3.4 9.8,4 19.8,7.3 29.9,10.1 0,0 -0.4,1.1 -1,3.5 -0.6,2.5 -0.8,3.9 -0.9,4 z" id="path26"/>
	<path class="st3" d="m 245.2,630.2 c -13.8,-2.8 -18.9,-11.4 -15.8,-22.7 2.7,-9.7 10,-17.4 23,-14.8 12,2.3 17.3,9.6 15.9,21.3 -1.1,10 -7.9,19.1 -23.1,16.2 z m 6.3,-32.2 c -5.5,-1.1 -9,2.4 -11.1,11.8 -2.1,9.3 -0.3,13.9 5.7,15.1 6.1,1.2 9.6,-2.6 11.2,-12 1.5,-9.4 -0.3,-13.8 -5.8,-14.9 z" id="path27"/>
	<path class="st3" d="m 310.8,599.1 c -1,1.8 -1.3,2.4 -1.1,17.9 0.1,6.1 0.2,12.2 0.3,18.3 0,0 -1.7,-0.1 -5.6,-0.1 -4.2,0 -7.4,0 -7.4,0 -4.6,-8.4 -8.7,-16.9 -12.5,-25.4 -0.8,-1.9 -1.3,-3.9 -1.3,-4.1 -0.3,3.5 -0.5,7 -0.8,10.5 -1.2,15.1 -0.9,15.3 0.2,17.5 0.2,0.3 0.3,0.6 0.5,0.9 0,0 -1.9,-0.2 -6,-0.6 -4.4,-0.4 -6.1,-0.5 -6.1,-0.5 0.2,-0.3 0.4,-0.5 0.7,-0.8 1.3,-1.7 1.8,-2.2 3.4,-17.7 1.5,-15 1.3,-15.3 0.4,-17.4 -0.1,-0.3 -0.3,-0.6 -0.4,-0.9 0,0 2,0.4 7,0.8 4.2,0.3 6.3,0.3 6.3,0.3 3.7,8.5 7.8,16.9 12.2,25.2 1.1,2 1.5,3.7 1.6,4 0,-3.5 0.1,-7 0.1,-10.5 0.1,-15.1 -0.1,-15.3 -1.2,-17.4 -0.2,-0.3 -0.3,-0.6 -0.5,-0.9 0,0 1.6,0.1 5.3,0.1 3.8,0 5.4,-0.2 5.4,-0.2 -0.2,0.4 -0.4,0.7 -0.5,1 z" id="path28"/>
	<path class="st3" d="m 360.6,605 c -1,8.6 -2.2,17.3 -3.7,25.9 0,0 -2.7,0.4 -7.5,1.1 -4.6,0.7 -7.7,1.1 -7.7,1.1 -3.8,-7.9 -7.4,-15.8 -10.8,-23.8 -2.9,-7 -4.2,-10.1 -6.4,-11.8 0,0 2,0 7.3,-0.5 5.5,-0.6 7.6,-1 7.6,-1 -0.6,0.6 -1.6,1.6 -1.3,3.5 0.2,1.8 1.5,4.7 3.1,8.3 2.5,5.6 5.1,11.3 7.7,16.9 0.6,1.3 1.1,2.8 1.2,3 0,-0.2 0.1,-1.7 0.3,-3.2 0.9,-6.1 1.7,-12.3 2.5,-18.4 0.4,-4 0.8,-7.1 0.4,-8.9 -0.3,-1.9 -1.5,-2.6 -2.3,-2.9 0,0 2.1,-0.2 6.6,-1.1 4.2,-0.8 5.9,-1.4 5.9,-1.4 -1.6,2.3 -2,5.6 -2.9,13.2 z" id="path29"/>
	<path class="st3" d="m 380.7,625.7 c -5.2,1.3 -7.4,1.9 -7.4,1.9 0.1,-0.3 0.2,-0.7 0.4,-1 0.8,-2.2 1,-2.6 -2.6,-17.8 -3.5,-14.7 -3.7,-14.9 -5.3,-16.6 -0.2,-0.2 -0.5,-0.5 -0.7,-0.7 0,0 1.9,-0.3 6.5,-1.5 4.9,-1.3 6.5,-1.9 6.5,-1.8 -0.1,0.3 -0.2,0.7 -0.2,1 -0.5,2.2 -0.7,2.6 3.4,17.6 4,14.6 4.3,14.7 6.1,16.4 0.3,0.2 0.5,0.5 0.8,0.7 -0.1,-0.1 -2.3,0.5 -7.5,1.8 z" id="path30"/>
	<path class="st3" d="m 419.5,611 c 0.2,0.6 0.4,1.3 0.6,1.9 -7.1,2.9 -14.4,5.5 -21.6,7.8 -3.2,1 -4.6,1.5 -4.6,1.5 0.1,-0.3 0.2,-0.7 0.3,-1 0.6,-2.2 0.8,-2.7 -3.8,-17.6 -4.5,-14.4 -4.8,-14.6 -6.5,-16.2 -0.2,-0.2 -0.5,-0.5 -0.7,-0.7 0,0 1.8,-0.4 6.7,-2 4.8,-1.6 6.3,-2.3 6.3,-2.3 -0.1,0.4 -0.1,0.7 -0.2,1.1 -0.5,2.3 -0.4,3.3 3.5,14.5 1.8,5 3.5,10.1 5.3,15.1 1.3,-0.5 2.6,-0.9 3.9,-1.4 7.2,-2.7 7.6,-4.5 8.7,-8 -0.1,0 0.4,2 2.1,7.3 z" id="path31"/>
	<path class="st3" d="m 449.2,597 c 0.3,0.6 0.5,1.2 0.8,1.8 -6.9,3.7 -13.8,7.1 -20.9,10.2 -3.1,1.4 -4.5,2 -4.5,2 0.1,-0.3 0.1,-0.7 0.2,-1 0.4,-2.3 0.5,-2.8 -5.6,-17.1 -6,-13.9 -6.3,-14 -8.2,-15.4 -0.3,-0.2 -0.5,-0.4 -0.8,-0.6 0,0 1.8,-0.6 6.5,-2.7 4.6,-2.1 6.1,-3 6.1,-3 0,0.4 -0.1,0.7 -0.1,1.1 -0.3,2.3 -0.1,3.4 5,14 2.3,4.8 4.6,9.7 6.9,14.5 1.3,-0.6 2.5,-1.2 3.8,-1.8 7,-3.5 7.2,-5.4 7.9,-8.9 -0.1,-0.1 0.6,1.9 2.9,6.9 z" id="path32"/>
	<path class="st3" d="m 482.5,578.6 c -3.9,2.8 -7.1,5 -7.1,5 0.4,-0.9 1,-2.3 -0.1,-3.9 -0.9,-1.3 -3,-3 -5.5,-5 -0.6,-0.5 -1.2,-1 -1.8,-1.4 -3.5,2.3 -7.1,4.6 -10.7,6.8 0.2,0.7 0.4,1.5 0.5,2.2 0.8,3.1 1.3,5.8 2.1,7.1 1,1.7 2.5,1.8 3.4,1.8 0,0 -2.6,1.5 -6.3,3.6 -3.9,2.2 -6,3.5 -6,3.5 1.2,-2.8 0.7,-6.2 -0.7,-13.7 -1.4,-7.5 -3,-14.9 -4.8,-22.3 -0.2,-0.6 -0.3,-1.2 -0.7,-1.8 -0.3,-0.6 -0.8,-0.7 -0.9,-0.7 4.8,-2.9 9.5,-5.9 14.2,-9.1 0,0 -0.1,0.5 0.3,1.1 0.4,0.6 0.8,1 1.3,1.4 5.8,4.8 11.8,9.4 17.8,13.9 6.1,4.5 8.9,6.4 12,6.4 0.1,0.1 -2.7,2.1 -7,5.1 z m -28.6,-17.4 c -1.7,-1.5 -2.6,-2.4 -2.8,-2.7 0.1,0.3 0.5,1.3 1.2,3.7 1.2,4.2 2.4,8.4 3.6,12.7 2.7,-1.6 5.3,-3.3 7.9,-5 -3.3,-2.9 -6.6,-5.8 -9.9,-8.7 z" id="path33"/>
</g>
<g id="g37" transform="translate(-60.7,-61.7)">
	<path class="st4" d="m 263.7,560.6 v -3.9 c 3.8,0 5.7,-1.4 5.8,-4.2 h 4.1 V 576 h -5 v -16.4 c -0.8,0.6 -2.5,1 -4.9,1 z" id="path34"/>
	<path class="st4" d="m 285.9,575.6 c -1.4,-0.5 -2.6,-1.4 -3.4,-2.4 -0.8,-1.1 -1.2,-2.4 -1.2,-3.9 0,-2.6 1.5,-4.6 4.4,-5.9 v -0.1 c -2.2,-1.2 -3.3,-2.8 -3.3,-5 0,-1.3 0.4,-2.4 1.1,-3.4 0.7,-1 1.7,-1.7 3,-2.2 1.3,-0.5 2.7,-0.7 4.3,-0.7 1.6,0 3,0.2 4.3,0.7 1.3,0.5 2.3,1.2 3,2.2 0.7,1 1.1,2.1 1.1,3.4 0,2.1 -1.1,3.8 -3.3,5 v 0.1 c 2.9,1.3 4.4,3.3 4.4,5.9 0,1.5 -0.4,2.9 -1.2,3.9 -0.8,1.1 -2,1.9 -3.4,2.4 -1.4,0.5 -3,0.8 -4.8,0.8 -1.9,0 -3.5,-0.2 -5,-0.8 z m 1.7,-4 c 0.8,0.7 1.8,1.1 3.2,1.1 1.3,0 2.4,-0.4 3.2,-1.1 0.8,-0.7 1.2,-1.6 1.2,-2.7 0,-1.1 -0.4,-2 -1.2,-2.7 -0.8,-0.7 -1.8,-1 -3.2,-1 -1.4,0 -2.4,0.3 -3.2,1 -0.8,0.7 -1.2,1.6 -1.2,2.7 0,1 0.4,2 1.2,2.7 z M 288,561 c 0.6,0.6 1.6,0.8 2.8,0.8 1.2,0 2.1,-0.3 2.8,-0.8 0.6,-0.6 1,-1.3 1,-2.3 0,-1 -0.3,-1.7 -1,-2.3 -0.6,-0.6 -1.6,-0.8 -2.8,-0.8 -1.2,0 -2.1,0.3 -2.8,0.8 -0.6,0.6 -1,1.3 -1,2.3 0.1,0.9 0.4,1.7 1,2.3 z" id="path35"/>
	<path class="st4" d="m 310.6,568.5 c 0.7,-2.5 1.7,-4.8 2.9,-6.9 1.2,-2.1 2.5,-3.7 3.9,-4.9 v -0.1 h -11.6 v -4.1 h 16.9 v 3.8 c -2.6,2.1 -4.5,4.9 -5.9,8.5 -1.4,3.6 -2.1,7.3 -2.1,11.2 h -5.3 c 0.1,-2.5 0.4,-5 1.2,-7.5 z" id="path36"/>
	<path class="st4" d="M 337.1,570.8 H 326.3 V 566 l 10.8,-13.5 h 5 v 14.3 h 3.4 v 4.1 h -3.4 v 5.1 h -5 z m 0,-4.1 v -8.6 l -6.9,8.6 z" id="path37"/>
</g>
<g id="g38" transform="translate(-60.7,-61.7)">
	<path class="st6" d="m 258.5,169.1 c -2.4,2.4 -2.1,5.4 -4.2,7.5 -0.9,0.9 -2.1,1.5 -3.7,1.5 -3.1,0 -5.2,-2.6 -5.2,-5.2 0,-2.7 3.1,-5.1 11.5,-5.1 1,0 2.2,0 3.3,0.1 -0.6,0.2 -1.2,0.6 -1.7,1.2" id="path38"/>
</g>
<g id="g39" transform="translate(-60.7,-61.7)">
	<path class="st7" d="m 466.9,232.6 c -2.4,0 -3.7,0.4 -3.7,0.4 0,0 16.1,-15.8 16.1,-40.4 0,-11.2 -2.7,-15.5 -3.1,-15.5 -0.8,0 -0.9,6.7 -6,11.8 -3.7,3.7 -9.6,4.1 -12.9,7.4 3.2,-6.8 0.9,-15.9 0.4,-15.9 -0.4,0 -0.2,4.8 -6.3,10.9 -3.9,3.9 -12.8,6.7 -20.2,14 3.1,-7.2 0.4,-14.7 -0.3,-14.7 -0.7,0 0,4.3 -4.2,8.5 -3.9,3.9 -11.4,5.8 -17,11.5 -7.8,7.8 -6.4,19.6 -6.4,23.9 0,0.4 0,0.8 0,1.2 -1.1,0.8 -2.2,1.7 -3.3,2.6 -8.8,7.7 -13.5,17.9 -13.5,29.4 0,22 14.2,36.8 26.8,50 5.6,5.8 10.8,11.3 14.6,17 3.9,5.9 5.7,11.3 5.7,16.9 0,5.4 -1.8,10.7 -5,14.4 -3.6,4.2 -8.5,6.3 -14.8,6.3 -10.8,0 -18.7,-4 -27.1,-8.3 -4.3,-2.2 -8.6,-4.5 -13.2,-6.3 C 371.1,334 354,319.6 354,297.4 c 0,-12.1 5.4,-18.8 3.4,-27.3 3.9,3.9 10.6,5.2 12.8,5.2 1.9,0 3.1,-0.7 3.8,-1.2 0.1,-0.1 0.1,-0.3 0,-0.4 -1.1,-0.8 -5.4,-4.3 -5.4,-10.7 0,-7.3 2.7,-12.9 2.7,-20.2 0,-7.3 -4,-11.6 -4.8,-12.4 3.3,3.3 9.1,5.3 12,5.3 2.5,0 3.9,-0.4 4.7,-1 0.1,-0.1 0.1,-0.3 0,-0.4 -1.4,-0.9 -7,-4.7 -7,-10.5 0,-6.7 1.9,-7.9 1.9,-12.6 0,-4.7 -2.2,-8.1 -2.2,-8.1 0,0 3.1,1.9 6.8,1.9 4.1,0 6.5,-1 8,-2.3 0.2,-0.2 0.1,-0.4 -0.2,-0.5 -10.4,-0.8 -9,-24.5 -18.8,-33.2 0,0 1,0.2 2.6,0.2 3.4,0 7.5,-2.9 9,-5.6 0.1,-0.2 0,-0.4 -0.2,-0.4 -18.8,-1 -24.8,-42.6 -67.2,-34.2 2.2,-3.1 6.3,-5.7 7.7,-6.6 0.2,-0.1 0.2,-0.4 0,-0.5 -1.9,-0.7 -6,-2.3 -15.4,-2.3 -9.7,0 -18.6,5.2 -23.7,11.8 2.3,-4.6 -0.5,-10.4 -3.1,-13.3 -0.1,-0.2 -0.4,-0.1 -0.5,0.1 -0.3,1.2 -1.3,3.7 -2.9,5.3 -7.6,7.6 -21.3,12.5 -21.3,28.4 0,0 -4.5,2.9 -10.5,7 -6.1,4.1 -9.3,10.6 -9.3,12.7 -2.3,1.2 -11.9,8.3 -19.6,16 -0.2,0.2 -0.2,0.5 -0.1,0.7 0.8,1.3 1.4,2.9 1.7,3.8 0.1,0.4 0.6,0.5 0.9,0.2 1,-1 3.1,-2.8 4.1,-3.1 -1.7,1.7 -2.3,3.8 -2.3,6.4 0,5.8 12.8,13.9 13.6,13.1 0.6,-0.6 -1.5,-6.5 0.4,-8.4 2.9,-2.9 13.1,-3.2 16.2,-3.2 3.2,0 4.8,1.2 4.8,3.4 0,5.4 -3.1,15.5 -12.9,15.5 -4,0 -6.5,-3.8 -7.2,-3.2 -0.6,0.6 -0.1,6.3 1.2,8.2 0,0 -1.1,1.3 -1.1,4 0,7 11.6,16 12.8,14.8 0.8,-0.8 -2.4,-8.7 -0.4,-8.7 1.1,0 4.2,4.5 7.8,4.5 0.2,0 0.2,-0.1 0.3,-0.1 0.6,-0.6 -2.3,-4.6 -0.7,-6.1 3.9,-3.9 14.1,-11.6 16.7,-12.4 5.4,-1.7 8.2,2.2 8.2,7.5 0,11.8 -12.5,14.2 -22.7,24.3 -10.2,10.2 -12.2,24.7 -25,24.7 -1.7,0 9.5,-3.1 12.7,-14.2 -33.5,0.3 -39.2,-18.4 -66,-22 -0.1,-0.4 -0.3,-0.8 -0.6,-1.2 -0.7,-0.7 -10.1,-9 -10.1,-27.5 0,-3.7 -2.5,-6.6 -6.4,-6.6 v 0 c -1.2,-2.6 -4.4,-7.9 -11.1,-7.9 -6.4,0 -8,3 -7.6,3.3 0.4,0.4 3.1,-0.6 6.4,2.7 1.9,1.9 2.7,4.1 3,5.6 -0.8,1 -1.3,2.1 -1.3,3.4 0,0 -3.3,-0.6 -6.5,2.4 -1.4,-0.8 -3.7,-1.7 -7.2,-1.7 -9.2,0 -11.1,8.3 -10.7,8.7 0.4,0.4 2,-1.5 4.8,-1.5 3.2,0 6.6,2.6 8.4,4.1 -0.2,2.1 0.2,4.1 1.6,5.5 0,0 -4.4,1.3 -5.2,7.5 -0.2,0 -0.4,0.1 -0.6,0.2 -12.2,3.4 -9.9,12.9 -9.4,12.9 0.5,0 1.1,-4.1 6.7,-4.1 1.9,0 3.5,0.2 4.7,0.5 2.2,4.2 6.1,5.2 8.9,5.2 2.5,0 4.9,-0.6 7,-0.6 2.8,0 4.5,1.7 4.5,5.6 0,5.7 -5.5,4 -8,6.5 -1.7,1.7 -1.9,3.2 -1.9,5.5 0,0.1 0,0.2 0,0.3 -0.8,0.2 -1.6,0.4 -2.4,0.4 -3.8,0 -6,-3.4 -6.5,-2.9 -0.7,0.7 1.6,11.6 9.3,11.6 2.7,0 4.6,-0.7 5.8,-1.7 0.6,0.1 1.3,0.2 2.1,0.2 7.8,0 9.6,-9.4 19.3,-9.4 9.6,0 28.3,13.4 31,30.1 0,0.2 0.3,0.3 0.4,0.2 4.2,-3.5 4,-8.7 4,-8.7 7.9,6.4 11.2,9.4 17.8,15.9 0,0 -38.5,29.6 -40.5,30.8 -1.7,1 -2.6,1.5 -4.7,1.5 -5.4,0 -7.1,-9.1 -15.8,-9.1 -1.7,0 -2.9,0.5 -3.9,1.3 -0.9,-0.2 -2,-0.3 -3.4,-0.3 -10.2,0 -12,13.7 -11.1,13.7 1,0 1.7,-3.5 6.5,-3.5 0.6,0 1.3,0.1 1.9,0.2 0,2.6 1,5.1 2.7,6.4 0,0 -2.8,1 -4.4,4.3 -12.1,0.4 -11.9,14.7 -10.7,14.7 0.8,0 1.3,-6 8.3,-6 0.5,0 1.2,0.2 1.8,0.5 1.2,5.3 4.9,8.2 9.2,8.2 -1.1,2 -0.9,5.2 0.3,8 -2.8,5.9 2.2,13.9 3.5,13.9 1,0 -0.2,-5.2 2,-8.5 0.5,0.1 1,0.2 1.5,0.2 6.3,0 9,-5.3 9,-5.3 0,0 0.4,5.6 6,6.2 1.2,5 4.4,9.2 5.4,9.2 0.7,0 -0.7,-6.8 1.4,-11.1 8,-8 1.7,-18.3 10,-26.5 9.5,-9.5 32.9,-18 52.2,-18.8 7,7.8 16.6,19.7 21,22.7 0,0 -0.2,0.2 -0.5,0.5 -11.9,11.9 -33.9,1.5 -45.5,13.1 -4.6,4.6 -5.2,8.8 -11.7,8.8 -2.2,0 -4.3,-1.1 -5.2,-2 -0.1,-0.1 -0.4,-0.1 -0.4,0.1 -0.4,1.4 -0.7,6 2.8,9.5 4,4 9,3.3 10.3,2.6 -3.2,4.3 -10.2,4.1 -14.3,1.7 -0.2,-0.1 -0.5,0.1 -0.4,0.3 3.2,12.4 16,10 16,10 2.7,13.3 15.8,18.8 15.8,27.7 0,2.5 -1,5.3 -3.1,7.4 -5,5 -16,8.3 -28,8.3 -19.3,0 -19.6,-13.7 -30.1,-13.7 -1.4,0 -2.7,0.2 -4,0.5 -1.5,-1.7 -4.8,-3.7 -9,-3.7 -6.4,0 -10.2,7.3 -9.3,8.2 0.5,0.5 2.4,-1.8 5.3,-1.8 1.4,0 3.2,1.2 3.9,3.2 -0.5,0.6 -1,1.3 -1.4,2.1 -1.1,-0.3 -2.4,-0.5 -4.1,-0.5 -12.1,0 -11.9,14 -10.6,14 0.7,0 2.3,-5.2 8.2,-4.5 -1.2,2.2 -1.8,4.6 -1.8,7.3 0,0.4 0,0.8 0,1.2 -2.8,1.6 -4.9,4.6 -4.9,8.1 0,5.1 1,7.6 1.7,7.6 0.9,0 1.7,-5.9 6.1,-7.8 2,2.7 4.9,4.8 8.3,5.7 -0.4,1.7 -0.8,4.4 -0.8,8.2 0,4.7 1.5,11 2.4,11 0.9,0 1.5,-7.3 4.6,-10.1 1.3,1.3 2.9,2.3 4.7,3.1 1.7,0.8 3.7,1.2 6,1.2 0.1,0 0.3,0 0.4,0 16.2,-0.3 26.5,-15.1 38.6,-15.1 6.8,0 6.9,6.4 4.4,9.1 18.4,0 23.6,-14 34.8,-14 5.7,0 10.8,3 16,3 3.4,0 7.6,-1.1 10,-6 0.1,-0.2 0,-0.4 -0.2,-0.4 -8.6,0.1 -12.2,-4 -12.9,-6.5 15.4,6.2 19.9,-3.4 20.8,-5.9 0.1,-0.2 -0.1,-0.4 -0.4,-0.3 -0.6,0.3 -1.7,0.6 -2.9,0.6 -8.3,0 -17.2,-8.4 -17.2,-20 0,-11 7.6,-17.2 14.9,-19.2 5.7,-16.2 13.8,-19.5 10.7,-29.6 0,0 0,-0.1 0,-0.1 0,0 0,0 0,0 0.9,1.1 2.5,5.5 2.5,7.9 0,10.7 -10.3,16.8 -10.3,33.8 0,19.1 14.9,18.4 14.9,31.2 0,5.1 -1.9,8 -2.7,9 -0.1,0.2 0,0.4 0.2,0.4 1.8,0.3 8.8,0.5 15.5,-10.6 8.9,4.6 6.5,12.3 5.8,14.1 -0.1,0.2 0.1,0.4 0.3,0.4 11.6,-0.4 15.3,-16.1 15.3,-16.1 10.2,-1.1 18.3,2.4 18.3,6.7 0,11.1 -20.7,31.8 -35.8,31.8 -5.6,0 -7.6,-5.9 -12.5,-5.9 -3.6,0 -5.3,1.7 -6.4,3.9 -2,-0.9 -4,-1.3 -5.9,-1.3 -4.8,0 -9,2.7 -10.5,8.6 -6.5,2.1 -7.8,12.2 -7.2,12.9 0.5,0.5 3.7,-4.8 9,-3.6 0.9,1.5 2,2.7 2.9,3.6 -1.1,0.6 -2.2,1.3 -3.5,2.6 -6.4,6.4 -4.8,13.5 -4.2,14.1 0.7,0.7 1.8,-2.5 3.6,-4.3 1.4,-1.4 3.4,-2.9 6.1,-2.7 2.2,4.1 6.9,5.2 9.9,5.2 -0.4,3.7 -0.3,10 0.6,10.9 0.7,0.7 3.6,-5.3 8,-8.5 2.3,1.4 5.2,2.8 8.2,2.8 8.4,0 16,-4 22.1,-10 8.9,-8.9 15,-23.1 22.5,-23.1 4.7,0 3.8,4.3 3.7,4.8 12.1,0 7,-14.8 30.1,-37.9 2.8,-2.8 6.1,-5.3 6.5,-8.1 0,-0.2 -0.2,-0.4 -0.4,-0.3 -2,1.3 -7.2,1.7 -9.5,-0.6 0,0 18.7,-9.3 19.2,-23.2 0,-0.2 -0.3,-0.4 -0.4,-0.2 -5,4 -14.4,3.1 -14.4,3.1 4.4,-3.5 7.6,-13.5 3.1,-22.9 -0.1,-0.2 -0.4,-0.2 -0.5,0 -4.3,10.3 -13.2,13.8 -21.2,13.8 -11.5,0 -21.3,-9.3 -21.3,-21.9 0,-10.8 3.5,-15.7 4.9,-25.4 2.5,1.1 5,2.3 7.7,3.7 9,4.6 19.2,9.8 33.2,9.8 5.2,0 10,-1 14.4,-3 4.1,-1.9 7.6,-4.6 10.6,-8 5.3,-6.2 8.2,-14.4 8.2,-23 0,-18 -12.2,-30.7 -24.1,-43.1 -5.9,-6.1 -11.9,-12.4 -16.3,-19.2 -4.7,-7.3 -6.8,-14.1 -6.8,-21.5 0,-7.5 4.2,-15.4 9.9,-20.5 0,0 12.7,7.1 27.4,7.1 14.6,0 23.4,-10.7 23.4,-10.7 6.7,-6.7 13.9,-5.7 14.7,-6.4 0.5,-1.3 -3.3,-5 -8.6,-5 M 258.5,169.1 c -2.4,2.4 -2.1,5.4 -4.2,7.5 -0.9,0.9 -2.1,1.5 -3.7,1.5 -3.1,0 -5.2,-2.6 -5.2,-5.2 0,-2.7 3.1,-5.1 11.5,-5.1 1,0 2.2,0 3.3,0.1 -0.6,0.2 -1.2,0.6 -1.7,1.2" id="path39"/>
</g>
<path class="st3" d="M 467.1,29.6 C 463.5,28.4 377.2,0 243.5,0 109.8,0 23.5,28.4 19.9,29.6 L 0,36.3 v 451.3 c 0,21.3 6.4,40.7 19.1,57.6 10.3,13.8 24.4,25.6 43.1,36.1 30.8,17.3 68.4,27.8 101.5,37 l 0.2,0.1 c 12.9,3.6 25,6.9 35.3,10.3 0.1,0 8.7,3 15.7,7.6 2.4,1.6 5.5,4.1 8.6,7 l 19.9,18.7 19.9,-18.7 c 3.1,-2.9 6.2,-5.4 8.5,-7 6.5,-4.3 14.8,-7.3 15.7,-7.6 10.4,-3.4 22.5,-6.8 35.3,-10.3 l 0.2,-0.1 c 33.2,-9.2 70.8,-19.7 101.5,-37 18.7,-10.5 32.8,-22.3 43.1,-36.1 12.7,-17 19.1,-36.4 19.1,-57.6 V 36.3 Z m 5.3,458 c 0,18.1 -5.5,34.5 -16.2,48.9 -9.1,12.1 -21.7,22.7 -38.6,32.2 -29.3,16.4 -66,26.6 -98.4,35.6 H 319 c -13,3.6 -25.4,7 -36.1,10.6 -0.1,0 -10.4,3.6 -19,9.2 -3.1,2.1 -6.7,5 -10.5,8.5 l -10,9.3 -9.9,-9.3 c -3.8,-3.5 -7.4,-6.5 -10.5,-8.5 -8.7,-5.7 -19,-9.2 -19.1,-9.2 -10.7,-3.5 -23,-7 -36.1,-10.6 h -0.2 C 135.2,595.3 98.5,585.1 69.3,568.7 52.4,559.2 39.8,548.7 30.7,536.5 19.9,522.1 14.5,505.7 14.5,487.6 V 46.8 l 9.9,-3.3 c 3.5,-1.2 87.6,-28.9 219,-28.9 131.4,0 215.5,27.7 219,28.9 l 9.9,3.3 v 440.8 z" id="path40"/>
</svg>