<svg xmlns="http://www.w3.org/2000/svg" viewBox="0.0 0.0 700.76 700.76" width="300" height="300">
  <defs>
    <style>
      .cls-1 {
        fill: #c10000;
      }

      .cls-2 {
        fill: #fff;
      }

      .cls-3 {
        fill: #ffb81c;
      }

      .cls-4 {
        fill: #0f0f0f;
      }
    </style>
  </defs>
  <g>
    <g>
      <path d="M350.39,700.76C157.19,700.76,0,543.58,0,350.38S157.19,0,350.39,0s350.37,157.18,350.37,350.38-157.18,350.38-350.37,350.38Z"/>
      <path class="cls-2" d="M350.39,692.03c-188.39,0-341.66-153.26-341.66-341.65S162,8.73,350.39,8.73s341.64,153.26,341.64,341.65-153.26,341.65-341.64,341.65Z"/>
      <g>
        <path class="cls-4" d="M563.27,311.2h-8.41c2.41,12.94,3.62,26.08,3.63,39.24-.03,29.07-6.12,57.81-17.89,84.38-11.77,26.58-28.96,50.4-50.47,69.95s-46.86,34.39-74.44,43.58c-27.57,9.19-56.76,12.51-85.7,9.77-28.93-2.74-56.98-11.5-82.34-25.7-25.35-14.21-47.46-33.55-64.92-56.8-17.45-23.24-29.85-49.87-36.42-78.18-6.57-28.32-7.15-57.69-1.71-86.24h-8.49c-5.73,31.3-4.5,63.48,3.59,94.25,8.09,30.78,22.84,59.4,43.22,83.84,20.38,24.44,45.88,44.1,74.7,57.6,28.82,13.49,60.25,20.48,92.07,20.48s63.25-6.99,92.07-20.48c28.82-13.5,54.32-33.16,74.7-57.6,20.37-24.44,35.13-53.06,43.22-83.84,8.09-30.77,9.32-62.95,3.59-94.25ZM349.7,133.3c-35.76.01-70.96,8.86-102.48,25.75-31.52,16.89-58.38,41.31-78.19,71.08l7.89,3.2c19.18-28.34,45.03-51.53,75.28-67.52,30.26-15.99,63.98-24.3,98.2-24.18,34.22.11,67.89,8.64,98.03,24.83,30.15,16.2,55.85,39.56,74.84,68.02l7.84-3.31c-38.86-58.47-105.93-97.87-181.41-97.87ZM576.75,247.89v.07c-.68-1.06-2.17-1.8-7.2-3.14l-25.94-6.74c-.17,0-22.54,36.82-22.54,36.82l42.52,22.57,11.99-41.68c1.47-5.45,1.96-6.71,1.17-7.9ZM554.86,311.2c2.41,12.94,3.62,26.08,3.63,39.24-.03,29.07-6.12,57.81-17.89,84.38-11.77,26.58-28.96,50.4-50.47,69.95s-46.86,34.39-74.44,43.58c-27.57,9.19-56.76,12.51-85.7,9.77-28.93-2.74-56.98-11.5-82.34-25.7-25.35-14.21-47.46-33.55-64.92-56.8-17.45-23.24-29.85-49.87-36.42-78.18-6.57-28.32-7.15-57.69-1.71-86.24h-8.49c-5.73,31.3-4.5,63.48,3.59,94.25,8.09,30.78,22.84,59.4,43.22,83.84,20.38,24.44,45.88,44.1,74.7,57.6,28.82,13.49,60.25,20.48,92.07,20.48s63.25-6.99,92.07-20.48c28.82-13.5,54.32-33.16,74.7-57.6,20.37-24.44,35.13-53.06,43.22-83.84,8.09-30.77,9.32-62.95,3.59-94.25h-8.41ZM513.38,278.92l-102.33,21.18v5.49h151.18l-48.85-26.67ZM410.9,286.5l.04,7.85,103.52-24.02,21.68-34.59-125.24,50.76ZM534.27,321.58c-.09-.9-.88-1.73-3.14-2.92l-8.37-4.22-42.64,17.89,22.72,21.84,28.22-27.98c1.96-2.08,3.29-3.32,3.21-4.61ZM252.2,165.81c30.26-15.99,63.98-24.3,98.2-24.18,34.22.11,67.89,8.64,98.03,24.83,30.15,16.2,55.85,39.56,74.84,68.02l7.84-3.31c-38.86-58.47-105.93-97.87-181.41-97.87-35.76.01-70.96,8.86-102.48,25.75-31.52,16.89-58.38,41.31-78.19,71.08l7.89,3.2c19.18-28.34,45.03-51.53,75.28-67.52ZM411,311.32l-.14,5.35,62.78,10.32,39.25-15.69-101.89.02ZM482.47,468.3c7.66,9.5,7.85,12.66,19,12.66l6.86-3.16-12.93-2.12s-33.47-52.78-34.25-53.8c-.81-1.06-22.61-58.86-22.61-58.86-3.69-9.22-6.84-10.81-13.46-14.5l-14.97-9.58-.7.91,17.16,23.44v34.02l55.9,70.99ZM458.28,353.09c3.01,1.74,6.14,3.24,9.38,4.49,3.07.51,6.18.66,9.28.45l18.6-1.06s-25.24-22.96-25.24-23.38c-1.12-.19-59.36-11.78-59.36-11.78l.06.06-.12,5.56c0,.21,47.4,25.66,47.4,25.66ZM409.48,277.73l39.99-43.32,25.72-31.28,1.4-8.51-2.67-2.3-3.16,9.69-67.16,60.94c.19.59,5.73,14.84,5.73,14.84l.15-.06ZM338.16,500.93l12.3,15.42,12.27-15.42,31.92-24.29,23.35-39.56v-70.73l-20.6-29.58,6.65-4.44v-46.32l-9.81-29.26-8.3-4.76s-.59-13.72-3.36-17.23c-2.23-2.85-13-6.4-13-6.4l-5.03-6.94,19.13-27.71,18.74-10.28,6-7.06-9.22,2.9-19.79,11.09-19.08,27.02-9.43-2.48-9.81,2.38-19.04-26.92-19.85-11.05-9.24-2.9,6.02,7.06,18.74,10.28,18.83,27.28-5.33,7.37s-10.78,3.55-12.99,6.4c-2.77,3.49-3.38,17.23-3.38,17.23l-8.3,4.76-9.81,29.26v46.32l7.05,4.69-20.9,29.27v70.74l23.35,39.55,31.92,24.31ZM392.59,466.59l-25.92,9.36,18.17-.43h.02l-24.78,18.84h-19.29l-24.78-18.84,18.15.43h.04l-25.92-9.36-11-19.18v-.02s31.11,11.08,31.11,11.08h44.09l31.48-11.06.05-.02-11.42,19.2ZM374.62,432.85h-48.37l-22.54-17.27.29-.71,24.88,8.87h43.17l24.88-8.87.27.71-22.58,17.27ZM369.54,231.03l10.02,18.21-12.73-5.14,2.71-13.07ZM331.22,231.01l2.88,13.25-12.91,4.96,10.03-18.21ZM306.49,276.92l18.94-15.78.06-.05-16.85,5.88h-.03s1.85-5.88,1.85-5.88c0,0,18.21-9.03,18.46-9.81h42.97s0,0,.01.02c.5.93,18.47,9.79,18.47,9.79l1.85,5.89-16.8-5.86-.1-.03,19,15.83,2.89,8.16v.03s-26.34-13.97-26.34-13.97l-.04-.02h-40.91l-26.38,13.99h-.01l2.96-8.19ZM350.29,293.4l-36.63,4.09-.32-1.18,36.97-13.03,38.75,16.87-12.93,29.04v-22.7l-25.84-13.09ZM290.64,368.47l37.04,4.54h.1s-27.74-15.68-27.74-15.68l11.06-15.27.03-.04,15.69,10.42h47.35l15.96-10.66h.01s11.14,15.57,11.14,15.57l-28.22,15.69,37.13-4.55h.02l-.02,19.84-24.02,8.96h-71.51l-24.02-8.96v-19.86ZM297.21,262.91l-67.08-60.98-3.12-9.61-2.57,2.37,1.39,8.52,25.67,31.22,39.96,43.32s5.56-14.25,5.75-14.84ZM218.65,468.32l55.8-70.99.14-34.02,17.17-23.48-.73-.91-14.97,9.58c-6.59,3.69-9.81,5.28-13.46,14.5,0,0-21.8,57.78-22.58,58.86v.02c-.79,1.06-34.3,53.82-34.3,53.82l-12.93,2.12,6.87,3.16c11.08,0,11.34-3.16,18.99-12.66ZM205.23,356.8l18.58,1.06c3.1.2,6.22.05,9.28-.45,3.24-1.25,6.38-2.75,9.38-4.5,0,0,47.41-25.49,47.41-25.66v-5.55s-58.58,11.9-59.45,11.9c-.26.53-25.2,23.2-25.2,23.2ZM227.01,326.92l62.79-10.32v-5.38h-102.03l39.24,15.7ZM289.8,294.35v-7.85l-125.26-50.76,21.7,34.67,103.56,23.94ZM138.21,305.55h151.08v-5.44l-102.23-21.17-48.85,26.61ZM197.77,354.17l22.73-21.84-42.74-17.89-8.38,4.22c-2.14,1.19-2.92,2.02-2.98,2.92h-.06c0,1.29,1.24,2.53,3.22,4.61l28.21,27.98ZM136.52,297.49l42.52-22.57s-22.35-36.83-22.55-36.83l-25.94,6.75c-5,1.34-6.49,2.08-7.2,3.14-.7,1.06-.33,2.36,1.2,7.73v.1l11.97,41.68ZM576.75,247.89v.07c-.68-1.06-2.17-1.8-7.2-3.14l-25.94-6.74c-.17,0-22.54,36.82-22.54,36.82l42.52,22.57,11.99-41.68c1.47-5.45,1.96-6.71,1.17-7.9ZM554.86,311.2c2.41,12.94,3.62,26.08,3.63,39.24-.03,29.07-6.12,57.81-17.89,84.38-11.77,26.58-28.96,50.4-50.47,69.95s-46.86,34.39-74.44,43.58c-27.57,9.19-56.76,12.51-85.7,9.77-28.93-2.74-56.98-11.5-82.34-25.7-25.35-14.21-47.46-33.55-64.92-56.8-17.45-23.24-29.85-49.87-36.42-78.18-6.57-28.32-7.15-57.69-1.71-86.24h-8.49c-5.73,31.3-4.5,63.48,3.59,94.25,8.09,30.78,22.84,59.4,43.22,83.84,20.38,24.44,45.88,44.1,74.7,57.6,28.82,13.49,60.25,20.48,92.07,20.48s63.25-6.99,92.07-20.48c28.82-13.5,54.32-33.16,74.7-57.6,20.37-24.44,35.13-53.06,43.22-83.84,8.09-30.77,9.32-62.95,3.59-94.25h-8.41ZM513.38,278.92l-102.33,21.18v5.49h151.18l-48.85-26.67ZM410.9,286.5l.04,7.85,103.52-24.02,21.68-34.59-125.24,50.76ZM534.27,321.58c-.09-.9-.88-1.73-3.14-2.92l-8.37-4.22-42.64,17.89,22.72,21.84,28.22-27.98c1.96-2.08,3.29-3.32,3.21-4.61ZM252.2,165.81c30.26-15.99,63.98-24.3,98.2-24.18,34.22.11,67.89,8.64,98.03,24.83,30.15,16.2,55.85,39.56,74.84,68.02l7.84-3.31c-38.86-58.47-105.93-97.87-181.41-97.87-35.76.01-70.96,8.86-102.48,25.75-31.52,16.89-58.38,41.31-78.19,71.08l7.89,3.2c19.18-28.34,45.03-51.53,75.28-67.52ZM411,311.32l-.14,5.35,62.78,10.32,39.25-15.69-101.89.02ZM482.47,468.3c7.66,9.5,7.85,12.66,19,12.66l6.86-3.16-12.93-2.12s-33.47-52.78-34.25-53.8c-.81-1.06-22.61-58.86-22.61-58.86-3.69-9.22-6.84-10.81-13.46-14.5l-14.97-9.58-.7.91,17.16,23.44v34.02l55.9,70.99ZM458.28,353.09c3.01,1.74,6.14,3.24,9.38,4.49,3.07.51,6.18.66,9.28.45l18.6-1.06s-25.24-22.96-25.24-23.38c-1.12-.19-59.36-11.78-59.36-11.78l.06.06-.12,5.56c0,.21,47.4,25.66,47.4,25.66ZM409.48,277.73l39.99-43.32,25.72-31.28,1.4-8.51-2.67-2.3-3.16,9.69-67.16,60.94c.19.59,5.73,14.84,5.73,14.84l.15-.06ZM338.16,500.93l12.3,15.42,12.27-15.42,31.92-24.29,23.35-39.56v-70.73l-20.6-29.58,6.65-4.44v-46.32l-9.81-29.26-8.3-4.76s-.59-13.72-3.36-17.23c-2.23-2.85-13-6.4-13-6.4l-5.03-6.94,19.13-27.71,18.74-10.28,6-7.06-9.22,2.9-19.79,11.09-19.08,27.02-9.43-2.48-9.81,2.38-19.04-26.92-19.85-11.05-9.24-2.9,6.02,7.06,18.74,10.28,18.83,27.28-5.33,7.37s-10.78,3.55-12.99,6.4c-2.77,3.49-3.38,17.23-3.38,17.23l-8.3,4.76-9.81,29.26v46.32l7.05,4.69-20.9,29.27v70.74l23.35,39.55,31.92,24.31ZM392.59,466.59l-25.92,9.36,18.17-.43h.02l-24.78,18.84h-19.29l-24.78-18.84,18.15.43h.04l-25.92-9.36-11-19.18v-.02s31.11,11.08,31.11,11.08h44.09l31.48-11.06.05-.02-11.42,19.2ZM374.62,432.85h-48.37l-22.54-17.27.29-.71,24.88,8.87h43.17l24.88-8.87.27.71-22.58,17.27ZM369.54,231.03l10.02,18.21-12.73-5.14,2.71-13.07ZM331.22,231.01l2.88,13.25-12.91,4.96,10.03-18.21ZM306.49,276.92l18.94-15.78.06-.05-16.85,5.88h-.03s1.85-5.88,1.85-5.88c0,0,18.21-9.03,18.46-9.81h42.97s0,0,.01.02c.5.93,18.47,9.79,18.47,9.79l1.85,5.89-16.8-5.86-.1-.03,19,15.83,2.89,8.16v.03s-26.34-13.97-26.34-13.97l-.04-.02h-40.91l-26.38,13.99h-.01l2.96-8.19ZM350.29,293.4l-36.63,4.09-.32-1.18,36.97-13.03,38.75,16.87-12.93,29.04v-22.7l-25.84-13.09ZM290.64,368.47l37.04,4.54h.1s-27.74-15.68-27.74-15.68l11.06-15.27.03-.04,15.69,10.42h47.35l15.96-10.66h.01s11.14,15.57,11.14,15.57l-28.22,15.69,37.13-4.55h.02l-.02,19.84-24.02,8.96h-71.51l-24.02-8.96v-19.86ZM297.21,262.91l-67.08-60.98-3.12-9.61-2.57,2.37,1.39,8.52,25.67,31.22,39.96,43.32s5.56-14.25,5.75-14.84ZM218.65,468.32l55.8-70.99.14-34.02,17.17-23.48-.73-.91-14.97,9.58c-6.59,3.69-9.81,5.28-13.46,14.5,0,0-21.8,57.78-22.58,58.86v.02c-.79,1.06-34.3,53.82-34.3,53.82l-12.93,2.12,6.87,3.16c11.08,0,11.34-3.16,18.99-12.66ZM205.23,356.8l18.58,1.06c3.1.2,6.22.05,9.28-.45,3.24-1.25,6.38-2.75,9.38-4.5,0,0,47.41-25.49,47.41-25.66v-5.55s-58.58,11.9-59.45,11.9c-.26.53-25.2,23.2-25.2,23.2ZM227.01,326.92l62.79-10.32v-5.38h-102.03l39.24,15.7ZM289.8,294.35v-7.85l-125.26-50.76,21.7,34.67,103.56,23.94ZM138.21,305.55h151.08v-5.44l-102.23-21.17-48.85,26.61ZM197.77,354.17l22.73-21.84-42.74-17.89-8.38,4.22c-2.14,1.19-2.92,2.02-2.98,2.92h-.06c0,1.29,1.24,2.53,3.22,4.61l28.21,27.98ZM136.52,297.49l42.52-22.57s-22.35-36.83-22.55-36.83l-25.94,6.75c-5,1.34-6.49,2.08-7.2,3.14-.7,1.06-.33,2.36,1.2,7.73v.1l11.97,41.68ZM397.4,336.77l6.65-4.44v-46.32l-9.81-29.26-8.3-4.76s-.59-13.72-3.36-17.23c-2.23-2.85-13-6.4-13-6.4l-5.03-6.94,19.13-27.71,18.74-10.28,6-7.06-9.22,2.9-19.79,11.09-19.08,27.02-9.43-2.48-9.81,2.38-19.04-26.92-19.85-11.05-9.24-2.9,6.02,7.06,18.74,10.28,18.83,27.28-5.33,7.37s-10.78,3.55-12.99,6.4c-2.77,3.49-3.38,17.23-3.38,17.23l-8.3,4.76-9.81,29.26v46.32l7.05,4.69-20.9,29.27v70.74l23.35,39.55,31.92,24.31,12.3,15.42,12.27-15.42,31.92-24.29,23.35-39.56v-70.73l-20.6-29.58ZM369.54,231.03l10.02,18.21-12.73-5.14,2.71-13.07ZM331.22,231.01l2.88,13.25-12.91,4.96,10.03-18.21ZM306.49,276.92l18.94-15.78.06-.05-16.85,5.88h-.03s1.85-5.88,1.85-5.88c0,0,18.21-9.03,18.46-9.81h42.97s0,0,.01.02c.5.93,18.47,9.79,18.47,9.79l1.85,5.89-16.8-5.86-.1-.03,19,15.83,2.89,8.16v.03s-26.34-13.97-26.34-13.97l-.04-.02h-40.91l-26.38,13.99h-.01l2.96-8.19ZM350.29,293.4l-36.63,4.09-.32-1.18,36.97-13.03,38.75,16.87-12.93,29.04v-22.7l-25.84-13.09ZM374.62,432.85h-48.37l-22.54-17.27.29-.71,24.88,8.87h43.17l24.88-8.87.27.71-22.58,17.27ZM392.59,466.59l-25.92,9.36,18.17-.43h.02l-24.78,18.84h-19.29l-24.78-18.84,18.15.43h.04l-25.92-9.36-11-19.18v-.02s31.11,11.08,31.11,11.08h44.09l31.48-11.06.05-.02-11.42,19.2ZM410.19,388.33l-24.02,8.96h-71.51l-24.02-8.96v-19.86l37.04,4.54h.1s-27.74-15.68-27.74-15.68l11.06-15.27.03-.04,15.69,10.42h47.35l15.96-10.66h.01s11.14,15.57,11.14,15.57l-28.22,15.69,37.13-4.55h.02l-.02,19.84ZM230.13,201.93l-3.12-9.61-2.57,2.37,1.39,8.52,25.67,31.22,39.96,43.32s5.56-14.25,5.75-14.84l-67.08-60.98ZM291.03,338.92l-14.97,9.58c-6.59,3.69-9.81,5.28-13.46,14.5,0,0-21.8,57.78-22.58,58.86v.02c-.79,1.06-34.3,53.82-34.3,53.82l-12.93,2.12,6.87,3.16c11.08,0,11.34-3.16,18.99-12.66l55.8-70.99.14-34.02,17.17-23.48-.73-.91ZM495.4,475.68s-33.47-52.78-34.25-53.8c-.81-1.06-22.61-58.86-22.61-58.86-3.69-9.22-6.84-10.81-13.46-14.5l-14.97-9.58-.7.91,17.16,23.44v34.02l55.9,70.99c7.66,9.5,7.85,12.66,19,12.66l6.86-3.16-12.93-2.12ZM473.92,192.32l-3.16,9.69-67.16,60.94c.19.59,5.73,14.84,5.73,14.84l.15-.06,39.99-43.32,25.72-31.28,1.4-8.51-2.67-2.3ZM230.43,333.6c-.26.53-25.2,23.2-25.2,23.2l18.58,1.06c3.1.2,6.22.05,9.28-.45,3.24-1.25,6.38-2.75,9.38-4.5,0,0,47.41-25.49,47.41-25.66v-5.55s-58.58,11.9-59.45,11.9ZM187.77,311.22l39.24,15.7,62.79-10.32v-5.38h-102.03ZM164.54,235.74l21.7,34.67,103.56,23.94v-7.85l-125.26-50.76ZM177.76,314.44l-8.38,4.22c-2.14,1.19-2.92,2.02-2.98,2.92h-.06c0,1.29,1.24,2.53,3.22,4.61l28.21,27.98,22.73-21.84-42.74-17.89ZM531.13,318.66l-8.37-4.22-42.64,17.89,22.72,21.84,28.22-27.98c1.96-2.08,3.29-3.32,3.21-4.61-.09-.9-.88-1.73-3.14-2.92ZM470.3,333.59c-1.12-.19-59.36-11.78-59.36-11.78l.06.06-.12,5.56c0,.21,47.4,25.66,47.4,25.66,3.01,1.74,6.14,3.24,9.38,4.49,3.07.51,6.18.66,9.28.45l18.6-1.06s-25.24-22.96-25.24-23.38ZM411,311.32l-.14,5.35,62.78,10.32,39.25-15.69-101.89.02ZM187.06,278.94l-48.85,26.61h151.08v-5.44l-102.23-21.17ZM156.49,238.09l-25.94,6.75c-5,1.34-6.49,2.08-7.2,3.14-.7,1.06-.33,2.36,1.2,7.73v.1l11.97,41.68,42.52-22.57s-22.35-36.83-22.55-36.83ZM576.75,247.89v.07c-.68-1.06-2.17-1.8-7.2-3.14l-25.94-6.74c-.17,0-22.54,36.82-22.54,36.82l42.52,22.57,11.99-41.68c1.47-5.45,1.96-6.71,1.17-7.9ZM513.38,278.92l-102.33,21.18v5.49h151.18l-48.85-26.67ZM410.9,286.5l.04,7.85,103.52-24.02,21.68-34.59-125.24,50.76Z"/>
        <path class="cls-3" d="M306.51,276.95l18.99-15.83-16.87,5.89,1.84-5.89s18.21-8.97,18.46-9.81h43.03c.27.78,18.48,9.81,18.48,9.81l1.84,5.89-16.89-5.89,18.99,15.83,2.9,8.18-26.39-13.99h-40.91l-26.47,13.99,2.98-8.18ZM403.97,447.39l-31.53,11.09h-44.09l-31.12-11.09,11.01,19.21,25.92,9.36-18.19-.43,24.78,18.84h19.29l24.8-18.84-18.21.43,25.92-9.36,11.42-19.21ZM410.19,368.49l-37.16,4.55,28.23-15.7-11.14-15.58-16.03,10.69h-47.31l-15.7-10.42-11.09,15.3,27.74,15.7-37.14-4.55v19.84l24.02,8.97h71.52l24.04-8.97.02-19.84Z"/>
        <path class="cls-1" d="M150.98,173.23c-3.4-2.83-7.28-1.35-10.11,1.96l-5.16,6.14,10.38,8.69,4.91-5.89c2.98-3.45,3.41-8.03-.02-10.91Z"/>
        <path class="cls-1" d="M319.5,634.17l8.95.9-3.26-12.54-5.69,11.64Z"/>
        <path class="cls-1" d="M284.34,611.97l-5.47-1.53-2.37,8.5,5.3,1.47c.6.23,1.24.32,1.88.28.64-.04,1.26-.2,1.83-.5.57-.29,1.07-.7,1.47-1.2.4-.5.7-1.07.86-1.69.16-.58.19-1.19.1-1.79-.09-.6-.31-1.16-.64-1.67-.33-.5-.76-.93-1.27-1.26-.51-.32-1.08-.54-1.68-.62Z"/>
        <path class="cls-1" d="M124.99,162.48l-4.85,5.89,8.99,7.53,4.71-5.61c.59-.61,1.06-1.33,1.36-2.12.3-.79.43-1.64.39-2.49-.04-.85-.26-1.67-.65-2.43-.38-.76-.92-1.43-1.57-1.97-3.24-2.73-6.55-1.1-8.38,1.2Z"/>
        <path class="cls-1" d="M79.85,345.36c1.1-.07,2.13-.56,2.88-1.37.75-.8,1.17-1.86,1.17-2.96s-.42-2.16-1.17-2.96c-.75-.8-1.78-1.29-2.88-1.37-1.1.07-2.13.56-2.88,1.37-.75.8-1.17,1.86-1.17,2.96s.42,2.16,1.17,2.96,1.78,1.29,2.88,1.37Z"/>
        <path class="cls-1" d="M200.88,573.99c-5.69-3.61-13.05-2.2-17.34,4.55-4.3,6.75-2.43,13.95,3.28,17.66,5.71,3.71,13.05,2.2,17.31-4.49,4.26-6.69,2.45-14.09-3.24-17.72Z"/>
        <path class="cls-1" d="M280.53,626.87l-5.89-1.63-2.75,9.81,5.53,1.55c3.38.94,6.63-.17,7.53-3.43.9-3.26-1.24-5.41-4.43-6.3Z"/>
        <path class="cls-1" d="M79.85,350.52c-1.31.03-2.57.45-3.64,1.2-1.07.75-1.89,1.8-2.37,3.02-.48,1.22-.58,2.55-.31,3.83.28,1.28.92,2.45,1.86,3.36.93.91,2.12,1.53,3.4,1.78,1.28.24,2.61.11,3.82-.4,1.21-.51,2.24-1.35,2.96-2.44.73-1.09,1.11-2.36,1.12-3.67.03-.9-.13-1.79-.47-2.62s-.84-1.58-1.48-2.21c-.64-.63-1.41-1.11-2.24-1.43-.84-.32-1.73-.46-2.63-.41Z"/>
        <path class="cls-1" d="M180.16,119.2c-.57-.73-1.29-1.33-2.11-1.77-.82-.43-1.72-.69-2.65-.75-.93-.06-1.85.07-2.72.4-.87.32-1.66.83-2.33,1.47l-5.89,4.75,8.5,10.54,5.57-4.49c.81-.53,1.49-1.22,2.02-2.04.52-.81.87-1.72,1.03-2.68.15-.95.11-1.93-.14-2.86-.24-.94-.68-1.81-1.28-2.57Z"/>
        <path class="cls-1" d="M570.96,181.53c6.44-6.36,8.4-15.7,1.06-23.13l-5.57-5.65-24.21,23.88,5.36,5.43c7.51,7.59,16.89,5.87,23.37-.53Z"/>
        <path class="cls-1" d="M612.63,345.14c1.1-.07,2.13-.56,2.88-1.36.75-.8,1.17-1.86,1.17-2.96s-.42-2.16-1.17-2.96c-.75-.8-1.78-1.29-2.88-1.37-1.1.07-2.13.56-2.88,1.37s-1.17,1.86-1.17,2.96.42,2.16,1.17,2.96c.75.8,1.78,1.29,2.88,1.36Z"/>
        <path class="cls-1" d="M612.63,350.4c-1.31.03-2.57.45-3.64,1.19-1.07.75-1.9,1.79-2.38,3-.48,1.21-.6,2.54-.33,3.82.27,1.28.91,2.45,1.83,3.37.93.92,2.11,1.54,3.39,1.8,1.28.25,2.61.12,3.81-.37,1.21-.5,2.24-1.34,2.98-2.42.74-1.08,1.13-2.35,1.15-3.66.03-.9-.12-1.79-.46-2.63s-.84-1.59-1.47-2.23-1.4-1.12-2.24-1.45c-.84-.32-1.74-.47-2.63-.43Z"/>
        <path class="cls-1" d="M646.39,336.49c-1.73.09-3.37.85-4.57,2.11-1.2,1.26-1.86,2.93-1.86,4.67s.67,3.41,1.86,4.67c1.2,1.26,2.83,2.02,4.57,2.11,1.73-.09,3.36-.85,4.56-2.11,1.2-1.26,1.86-2.93,1.86-4.67s-.67-3.41-1.86-4.67c-1.2-1.26-2.82-2.02-4.56-2.11Z"/>
        <path class="cls-1" d="M526.17,125.34c.56-.73.96-1.56,1.18-2.46.22-.89.25-1.82.08-2.72-.16-.9-.51-1.76-1.03-2.52-.52-.76-1.18-1.4-1.96-1.89l-6.02-4.55-8.16,10.81,5.73,4.32c.72.64,1.56,1.13,2.47,1.43.91.3,1.88.41,2.84.32.96-.09,1.88-.38,2.72-.85.84-.47,1.57-1.11,2.15-1.87Z"/>
        <path class="cls-1" d="M452.09,113.35c8.26,3.45,17.66,0,21.58-9.81,3.92-9.81,0-18.89-8.2-22.35-8.2-3.45-17.66,0-21.7,9.81-4.04,9.81.04,18.91,8.32,22.35Z"/>
        <path class="cls-1" d="M350.39,17.47C166.82,17.47,17.46,166.8,17.46,350.38s149.35,332.92,332.93,332.92,332.91-149.35,332.91-332.92S533.96,17.47,350.39,17.47ZM578.36,152.16c11.97,12.16,9.42,27.47.33,36.44-9.08,8.97-25.11,12.16-38.03-.94l-12.05-12.22,36.87-36.32,12.87,13.05ZM530.8,109.43c8.3,6.24,9.03,15.19,4.06,21.78-1.84,2.4-4.36,4.2-7.23,5.16-2.87.96-5.96,1.04-8.88.23l-3.32,26.11-9.99-7.67,3.28-23.13-3.83-2.9-12.32,16.32-8.28-6.26,31.14-41.22,15.36,11.58ZM434.19,87c2.11-4.81,5.59-8.89,10.02-11.73,4.42-2.84,9.58-4.31,14.83-4.22,5.25.09,10.36,1.72,14.69,4.7,4.33,2.98,7.68,7.17,9.63,12.05,1.95,4.88,2.42,10.22,1.35,15.36-1.07,5.14-3.64,9.85-7.38,13.54-3.74,3.69-8.49,6.19-13.65,7.19-5.16,1-10.5.45-15.34-1.57-3.3-1.33-6.29-3.31-8.8-5.83-2.51-2.52-4.49-5.51-5.81-8.81-1.32-3.3-1.96-6.83-1.88-10.39.08-3.55.88-7.05,2.34-10.29ZM395.93,51.41l30.82,5.89-1.69,8.73-20.62-3.92-2.37,12.36,16.44,3.16-1.67,8.73-16.46-3.16-4.04,21.01-10.18-1.96,9.77-50.84ZM329.22,48.13l42.79.24v8.89h-16.21l-.26,42.85h-10.38l.22-42.85-16.19-.1.02-9.03ZM273.14,58.47l31,26.55-7.3-32,10.12-2.32,11.56,50.44-9.59,2.2-30.9-26.27,7.28,31.73-10.12,2.34-11.56-50.46,9.52-2.2ZM234.57,70.68l3.92,8.03-18.93,9.06,5.44,11.34,15.11-7.22,3.92,8.01-15.13,7.24,5.42,11.28,19.5-9.34,3.92,8-28.88,13.83-22.35-46.68,28.06-13.56ZM165.89,110.84c8.08-6.53,16.93-5.08,22.11,1.35,1.89,2.36,3.02,5.24,3.26,8.25.23,3.02-.44,6.03-1.94,8.66l24.55,9.5-9.81,7.85-21.58-8.79-3.73,3,12.85,15.91-8.08,6.53-32.63-40.2,15.01-12.07ZM118.8,156.08c6.75-8.08,14.64-8.65,19.82-4.32,1.95,1.6,3.33,3.79,3.96,6.23.63,2.44.46,5.02-.47,7.37,2.19-1.86,4.97-2.88,7.85-2.88s5.66,1.02,7.85,2.88c5.89,4.91,8.4,14.74,1.02,23.54l-12.42,14.83-39.67-33.24,12.07-14.42ZM55.13,368.71h-5.73v-33.85l5.73-3.57v37.42ZM79.9,369.12c-1.61.06-3.22-.2-4.73-.77-1.51-.57-2.89-1.44-4.06-2.55-1.17-1.11-2.11-2.45-2.75-3.93-.65-1.48-.99-3.07-1.01-4.69-.03-1.99.48-3.95,1.47-5.68.99-1.73,2.43-3.15,4.16-4.13-.89-.82-1.59-1.82-2.05-2.93-.47-1.11-.69-2.31-.65-3.52,0-2.57,1.02-5.04,2.84-6.85,1.82-1.82,4.28-2.84,6.85-2.84s5.04,1.02,6.85,2.84c1.82,1.82,2.84,4.28,2.84,6.85.02,1.22-.21,2.43-.69,3.55-.48,1.12-1.18,2.13-2.08,2.96,1.74.97,3.18,2.4,4.17,4.13.99,1.73,1.5,3.69,1.46,5.68-.02,1.62-.37,3.22-1.03,4.7-.65,1.48-1.6,2.81-2.78,3.92-1.18,1.11-2.57,1.97-4.09,2.52-1.52.56-3.14.81-4.75.73h.04ZM133.01,525.44l-5.4,3.92-7.48-10.14-12.97,9.56-4.63-6.28,31.39-23.13,14.01,19.01-5.38,3.92-9.38-12.71-7.63,5.63,7.46,10.22ZM139.17,567.39c-2.86-2.86-4.8-6.51-5.57-10.49-.78-3.97-.35-8.08,1.22-11.81,1.57-3.73,4.21-6.91,7.59-9.13,3.38-2.22,7.35-3.39,11.39-3.35,4.05.04,7.99,1.28,11.33,3.57,3.34,2.29,5.92,5.52,7.42,9.28,1.5,3.76,1.84,7.88.99,11.83-.85,3.96-2.86,7.57-5.77,10.38-1.87,1.91-4.1,3.42-6.57,4.44-2.47,1.02-5.11,1.54-7.78,1.51-2.67-.03-5.31-.59-7.75-1.66-2.45-1.07-4.65-2.62-6.48-4.57ZM210.75,595.85c-2.19,3.3-5.3,5.87-8.95,7.4-3.65,1.53-7.67,1.95-11.55,1.21-3.89-.75-7.46-2.62-10.29-5.39-2.82-2.77-4.76-6.32-5.58-10.19-.81-3.87-.47-7.9,1-11.57,1.47-3.67,3.99-6.83,7.24-9.08,3.26-2.25,7.1-3.48,11.06-3.55,3.96-.07,7.84,1.04,11.17,3.17,2.27,1.41,4.23,3.27,5.76,5.46,1.53,2.19,2.61,4.67,3.16,7.28.55,2.62.56,5.32.04,7.94-.52,2.62-1.57,5.11-3.07,7.32ZM255.88,603.53l-11.2-5.06-13.4,29.43-7.1-3.26,13.38-29.33-11.09-5.06,2.79-6.1,29.29,13.38-2.67,6ZM295.92,617.95c-.5,1.83-1.57,3.46-3.05,4.64-1.48,1.19-3.3,1.88-5.19,1.98,1.97.91,3.55,2.5,4.45,4.47s1.07,4.21.47,6.3c-1.55,5.53-7.49,10.32-15.81,8l-14.03-3.93,10.46-37.53,13.58,3.79c7.59,2.16,10.46,7.38,9.08,12.28h.04ZM332.83,651.69l-2.35-9.1-14.3-1.46-4.14,8.44-8.42-.84,19.07-37.28,7.42.75,11.15,40.3-8.42-.81ZM350.1,576.04c-59.82-.07-117.17-23.87-159.47-66.17-42.3-42.3-66.1-99.65-66.17-159.47.03-13.38,1.21-26.73,3.55-39.91.69-3.77,1.82-7.71,1.82-7.71l-12.87-44.69c-2.77-9.57-3.92-12.22-2.33-14.68.61-.98,1.71-2.57,6.16-3.73l38.67-9.63.76-1.45c20.36-31.78,48.37-57.94,81.46-76.08,33.09-18.15,70.21-27.69,107.95-27.77,37.74-.08,74.9,9.32,108.07,27.32,33.17,18.01,61.28,44.05,81.77,75.74l1.2,2.16,38.65,9.63c4.45,1.18,5.57,2.75,6.16,3.73,1.51,2.47.43,5.1-2.34,14.68l-12.85,44.7s1.32,4.41,1.96,8.16c2.35,13.05,3.51,26.28,3.47,39.53-.07,59.83-23.87,117.19-66.18,159.49-42.31,42.3-99.67,66.09-159.5,66.15h.04ZM359.18,652.07l-2.22-38.89,7.85-.43,1.82,32.22,15.54-.89.37,6.67-23.37,1.32ZM400.48,647.65l-7.63-38.18,7.65-1.55,6.3,31.75,15.27-3.07,1.31,6.55-22.9,4.5ZM476.36,624.11c-9.42,4.17-20.68.94-25.82-10.64-1.2-2.43-1.89-5.08-2.02-7.79-.14-2.71.29-5.41,1.24-7.95.95-2.54,2.41-4.86,4.29-6.81,1.88-1.95,4.14-3.5,6.64-4.55,2.67-1.24,5.59-1.85,8.54-1.78,2.94.06,5.84.8,8.45,2.15l-2.88,7.04c-1.67-1.08-3.59-1.7-5.57-1.81-1.98-.11-3.96.3-5.73,1.18-6.06,2.69-9.44,8.77-5.89,16.74,3.39,7.63,10.09,10.03,16.15,7.34,2.32-1.02,4.26-2.75,5.53-4.95,1.27-2.19,1.82-4.73,1.55-7.26l7.22.51c.16,3.91-.88,7.78-2.98,11.09-2.1,3.31-5.15,5.9-8.75,7.43l.04.04ZM509.4,606.04l-21.58-32.39,6.51-4.34,17.91,26.82,12.95-8.63,3.71,5.55-19.5,12.99ZM554.94,573.17c-5.89,5.14-15.05,6.61-21.58-.78l-16.52-18.91,5.89-5.14,15.97,18.29c3.77,4.32,8.12,3.92,11.38,1.06,3.26-2.86,4.34-7,.47-11.42l-15.95-18.29,5.89-5.14,16.5,18.91c6.53,7.48,3.81,16.25-2.08,21.39l.04.04ZM590.47,534.34l-9.97,10.63-28.43-26.62,9.61-10.28c5.44-5.89,11.38-5.89,15.09-2.43,1.4,1.29,2.35,2.98,2.72,4.84.37,1.86.14,3.79-.66,5.52,1.72-1.31,3.84-1.96,6-1.85,2.15.11,4.2.98,5.77,2.46,4.22,3.88,5.71,11.38-.18,17.7l.04.04ZM612.66,369.04c-1.61.07-3.23-.19-4.74-.76-1.51-.57-2.9-1.43-4.07-2.55-1.17-1.11-2.11-2.45-2.76-3.93-.65-1.48-.99-3.08-1.01-4.69-.03-1.99.48-3.95,1.47-5.68.99-1.73,2.43-3.15,4.16-4.13-.88-.83-1.58-1.83-2.05-2.95-.47-1.12-.69-2.32-.66-3.53,0-2.57,1.02-5.04,2.84-6.85,1.82-1.82,4.28-2.84,6.85-2.84s5.03,1.02,6.85,2.84c1.81,1.82,2.84,4.28,2.84,6.85.02,1.22-.21,2.43-.69,3.55-.48,1.12-1.18,2.13-2.08,2.96,1.74.97,3.18,2.4,4.17,4.12.99,1.73,1.49,3.69,1.46,5.69-.02,1.62-.38,3.21-1.03,4.69-.66,1.48-1.6,2.81-2.77,3.92-1.18,1.11-2.57,1.96-4.09,2.52-1.52.56-3.13.8-4.75.73l.04.04ZM646.02,368.63h-6.36l7.85-13.44c-.52.1-1.04.15-1.57.16-2.34-.18-4.58-1.03-6.45-2.46-1.86-1.43-3.27-3.38-4.05-5.6-.77-2.22-.89-4.62-.32-6.9.57-2.28,1.79-4.35,3.51-5.95,1.73-1.6,3.88-2.66,6.2-3.05,2.32-.39,4.7-.1,6.86.84s3.99,2.49,5.28,4.46c1.29,1.97,1.98,4.27,1.97,6.62-.12,2.47-.89,4.87-2.24,6.95l-10.67,18.38Z"/>
        <path class="cls-1" d="M572.44,512.45c-.44-.41-.97-.72-1.54-.91-.57-.19-1.18-.26-1.77-.2-.6.06-1.18.25-1.7.55-.52.3-.97.71-1.33,1.19l-3.92,4.16,6.44,6.02,3.77-4.02c.47-.43.85-.95,1.11-1.53.26-.58.4-1.21.41-1.85,0-.64-.12-1.27-.37-1.86-.25-.59-.62-1.11-1.09-1.55Z"/>
        <path class="cls-1" d="M145.33,544.47c-5.71,5.51-5.63,13.01-.94,17.85,4.69,4.85,12.18,5.18,17.89-.33,5.71-5.51,5.65-13.05.96-17.89-4.69-4.85-12.18-5.18-17.91.37Z"/>
        <path class="cls-1" d="M577.58,523.34l-4.12,4.41,7.44,6.95,3.92-4.2c2.39-2.55,2.9-5.89.45-8.26-2.45-2.37-5.43-1.33-7.69,1.1Z"/>
      </g>
    </g>
  </g>
</svg>